HIERARCHY
ROOT Hips
{
 OFFSET 0.000000 0.000000 0.000000
 CHANNELS 6 Xposition Yposition Zposition Yrotation Xrotation Zrotation
 JOINT Chest
 {
  OFFSET 0.000000 11.804363 -0.063453
  CHANNELS 3 Yrotation Xrotation Zrotation
  JOINT Chest2
  {
   OFFSET 0.000000 8.678182 0.115260
   CHANNELS 3 Yrotation Xrotation Zrotation
   JOINT Chest3
   {
    OFFSET 0.000000 7.837483 0.000000
    CHANNELS 3 Yrotation Xrotation Zrotation
    JOINT Chest4
    {
     OFFSET 0.000000 7.837483 0.000000
     CHANNELS 3 Yrotation Xrotation Zrotation
     JOINT Neck
     {
      OFFSET 0.000000 11.057757 0.000000
      CHANNELS 3 Yrotation Xrotation Zrotation
      JOINT Head
      {
       OFFSET 0.000000 8.693641 0.164845
       CHANNELS 3 Yrotation Xrotation Zrotation
       End Site
       {
        OFFSET 0.000000 17.305431 0.029040
       }
      }
     }
     JOINT RightCollar
     {
      OFFSET -2.774797 6.242379 0.000000
      CHANNELS 3 Yrotation Xrotation Zrotation
      JOINT RightShoulder
      {
       OFFSET -15.165888 0.000000 0.000000
       CHANNELS 3 Yrotation Xrotation Zrotation
       JOINT RightElbow
       {
        OFFSET -29.069762 0.000000 0.000000
        CHANNELS 3 Yrotation Xrotation Zrotation
        JOINT RightWrist
        {
         OFFSET -24.025936 0.000000 0.010022
         CHANNELS 3 Yrotation Xrotation Zrotation
         JOINT Prop1
         {
          OFFSET -8.918196 -1.004563 2.009127
          CHANNELS 3 Yrotation Xrotation Zrotation
          End Site
          {
           OFFSET 31.104663 -79.934182 29.919600
          }
         }
         End Site
         {
          OFFSET -18.137761 0.000000 0.000000
         }
        }
       }
      }
     }
     JOINT LeftCollar
     {
      OFFSET 2.774797 6.242379 0.000000
      CHANNELS 3 Yrotation Xrotation Zrotation
      JOINT LeftShoulder
      {
       OFFSET 15.165888 0.000000 0.000000
       CHANNELS 3 Yrotation Xrotation Zrotation
       JOINT LeftElbow
       {
        OFFSET 29.069762 0.000000 0.000000
        CHANNELS 3 Yrotation Xrotation Zrotation
        JOINT LeftWrist
        {
         OFFSET 24.025936 0.000000 0.010022
         CHANNELS 3 Yrotation Xrotation Zrotation
         End Site
         {
          OFFSET 18.137761 0.000000 0.000000
         }
        }
       }
      }
     }
    }
   }
  }
 }
 JOINT RightHip
 {
  OFFSET -10.091435 0.310918 0.031726
  CHANNELS 3 Yrotation Xrotation Zrotation
  JOINT RightKnee
  {
   OFFSET 0.000000 -55.384733 0.006606
   CHANNELS 3 Yrotation Xrotation Zrotation
   JOINT RightAnkle
   {
    OFFSET 0.000000 -43.441540 0.082754
    CHANNELS 3 Yrotation Xrotation Zrotation
    JOINT RightToe
    {
     OFFSET 0.000000 -9.166765 19.367417
     CHANNELS 3 Yrotation Xrotation Zrotation
     End Site
     {
      OFFSET 0.000000 -1.500446 6.247857
     }
    }
   }
  }
 }
 JOINT LeftHip
 {
  OFFSET 10.091435 0.310918 0.031726
  CHANNELS 3 Yrotation Xrotation Zrotation
  JOINT LeftKnee
  {
   OFFSET 0.000000 -55.384733 0.006606
   CHANNELS 3 Yrotation Xrotation Zrotation
   JOINT LeftAnkle
   {
    OFFSET 0.000000 -43.441540 0.082754
    CHANNELS 3 Yrotation Xrotation Zrotation
    JOINT LeftToe
    {
     OFFSET 0.000000 -9.166765 19.367417
     CHANNELS 3 Yrotation Xrotation Zrotation
     End Site
     {
      OFFSET 0.000000 -1.500446 6.247857
     }
    }
   }
  }
 }
}
MOTION
Frames: 16
Frame Time: 0.004167
0.000000 107.480150 0.000000 0.000000 -5.826342 0.000000 0.000000 11.116423 0.000000 0.000000 -5.290081 0.000000 0.000000 0.000000 0.000000 0.000000 0.000000 0.000000 0.000000 12.665069 0.000000 0.000000 0.575450 0.000000 0.000000 0.000000 0.000000 0.000000 0.000000 0.000000 2.337306 0.000000 0.000000 -2.337306 0.000000 0.000000 0.000000 0.000000 -90.000000 0.000000 0.000000 0.000000 0.000000 0.000000 0.000000 -2.337306 0.000000 0.000000 2.337306 0.000000 0.000000 0.000000 8.578828 0.000000 0.000000 1.905768 0.000000 0.000000 -4.658254 0.000000 0.000000 0.000000 0.000000 0.000000 8.578828 0.000000 0.000000 1.905768 0.000000 0.000000 -4.658254 0.000000 0.000000 0.000000 0.000000
-259.848696 108.761785 -44.051365 92.252304 -9.882003 -3.358636 -4.950552 9.738048 4.676857 -2.290508 4.278071 2.175081 -2.290507 4.278071 2.175083 -1.732356 3.200509 1.646641 1.884277 12.259018 -3.010229 4.867444 -13.239371 -6.545631 7.441489 -0.103748 8.651064 -4.462710 -32.375483 66.076365 111.497360 -0.284859 9.671657 38.460479 -7.060193 -32.379030 39.760386 -9.264634 -91.358695 -3.246776 -5.568263 -16.703502 -65.372270 -34.846023 -36.339828 -62.225995 -11.398285 -27.502318 -6.228539 5.963476 16.802375 0.042733 10.732978 -0.414720 3.079976 9.893829 0.222306 10.475506 -10.820514 -5.159718 0.000000 -0.000000 0.000000 8.293090 -6.056325 9.424775 2.244792 25.669403 0.043175 -10.239620 -6.323572 1.592340 0.090732 -3.585910 -3.296546
-259.835710 108.757968 -44.024085 92.249457 -9.863894 -3.331501 -4.937810 9.722282 4.671929 -2.284627 4.271245 2.172488 -2.284624 4.271246 2.172491 -1.727905 3.195420 1.644634 2.412761 12.265996 -3.026745 5.880613 -13.183399 -6.802106 7.425530 -0.123564 8.633391 -4.516146 -32.345406 66.101429 111.532050 -0.296451 9.648023 38.476170 -7.068685 -32.392286 39.777932 -9.275207 -91.352908 -3.217730 -5.549483 -16.723716 -65.439480 -34.819159 -36.363005 -62.235559 -11.345206 -27.511888 -6.238258 5.974542 16.816693 -0.040254 10.719554 -0.439316 3.242249 9.899312 0.229090 10.400052 -10.839546 -5.163724 -0.000000 -0.000000 0.000000 8.237379 -6.051065 9.424859 2.336175 25.663344 0.043612 -10.269598 -6.343635 1.581055 0.074188 -3.257959 -2.994444
-259.822588 108.754167 -43.996665 92.246041 -9.845555 -3.303741 -4.924977 9.706323 4.666726 -2.278699 4.264336 2.169770 -2.278695 4.264337 2.169774 -1.723419 3.190269 1.642533 2.951885 12.273067 -3.044278 6.913973 -13.122000 -7.063133 7.409703 -0.143749 8.615503 -4.570903 -32.314448 66.127323 111.567095 -0.307859 9.623978 38.492290 -7.077213 -32.406193 39.795993 -9.286131 -91.347152 -3.188293 -5.530503 -16.744122 -65.508109 -34.791967 -36.386101 -62.244394 -11.291301 -27.521306 -6.248252 5.985552 16.830550 -0.124731 10.705935 -0.464718 3.407029 9.904510 0.235992 10.324125 -10.858371 -5.167713 0.000000 0.000000 0.000000 8.180253 -6.045462 9.424769 2.429605 25.657156 0.043893 -10.299582 -6.363969 1.569654 0.058769 -2.917546 -2.681072
-259.809390 108.750376 -43.969164 92.242305 -9.827084 -3.275626 -4.912090 9.690256 4.661364 -2.272743 4.257382 2.166980 -2.272739 4.257383 2.166984 -1.718912 3.185085 1.640376 3.497105 12.280295 -3.062319 7.958598 -13.055343 -7.325722 7.393955 -0.164142 8.597490 -4.626397 -32.282977 66.153666 111.602342 -0.319162 9.599694 38.508651 -7.085761 -32.420479 39.814347 -9.297263 -91.341423 -3.158635 -5.511398 -16.764627 -65.577547 -34.764591 -36.409159 -62.252804 -11.236921 -27.530638 -6.258397 5.996534 16.844149 -0.210052 10.692168 -0.490558 3.573240 9.909562 0.242959 10.247929 -10.877085 -5.171687 -0.000000 -0.000000 0.000000 8.122317 -6.039676 9.424584 2.524202 25.650913 0.044077 -10.329568 -6.384461 1.558187 0.044874 -2.569993 -2.361322
-259.796172 108.746588 -43.941643 92.238495 -9.808578 -3.247423 -4.899185 9.674168 4.655957 -2.266779 4.250418 2.164169 -2.266775 4.250419 2.164173 -1.714399 3.179893 1.638204 4.043875 12.287729 -3.080363 9.005576 -12.983777 -7.586943 7.378236 -0.184585 8.579439 -4.682047 -32.251360 66.180079 111.637638 -0.330440 9.575342 38.525068 -7.094312 -32.434869 39.832771 -9.308460 -91.335715 -3.128929 -5.492243 -16.785137 -65.647186 -34.737175 -36.432219 -62.261093 -11.182420 -27.539954 -6.268565 6.007513 16.857690 -0.295574 10.678305 -0.516470 3.739808 9.914609 0.249938 10.171669 -10.895782 -5.175653 -0.000000 -0.000000 0.000000 8.064175 -6.033867 9.424381 2.619086 25.644684 0.044220 -10.359549 -6.404995 1.546704 0.032789 -2.220625 -2.040072
-259.782993 108.742795 -43.914162 92.234860 -9.790136 -3.219403 -4.886300 9.658144 4.650617 -2.260826 4.243481 2.161390 -2.260822 4.243482 2.161393 -1.709895 3.174721 1.636055 4.587650 12.295407 -3.097908 10.046015 -12.907838 -7.843936 7.362493 -0.204916 8.561437 -4.737274 -32.219969 66.206187 111.672830 -0.341770 9.551096 38.541352 -7.102851 -32.449089 39.851044 -9.319582 -91.330021 -3.099345 -5.473112 -16.805559 -65.716417 -34.709861 -36.455322 -62.269566 -11.128150 -27.549320 -6.278629 6.018514 16.871373 -0.380653 10.664401 -0.542089 3.905659 9.919790 0.256877 10.095547 -10.914557 -5.179614 0.000000 0.000000 0.000000 8.006433 -6.028194 9.424239 2.713378 25.638541 0.044385 -10.389520 -6.425455 1.535253 0.022684 -1.874774 -1.722192
-259.769910 108.738990 -43.886782 92.231646 -9.771856 -3.191833 -4.873470 9.642270 4.645460 -2.254903 4.236609 2.158694 -2.254899 4.236609 2.158697 -1.705414 3.169596 1.633969 5.123881 12.303353 -3.114455 11.071043 -12.828232 -8.093919 7.346673 -0.224976 8.543573 -4.791499 -32.189173 66.231618 111.707767 -0.353231 9.527127 38.557319 -7.111362 -32.462864 39.868945 -9.330483 -91.324336 -3.070054 -5.454083 -16.825800 -65.784632 -34.682792 -36.478507 -62.278529 -11.074463 -27.558804 -6.288465 6.029565 16.885398 -0.464647 10.650514 -0.567052 4.069716 9.925243 0.263725 10.019769 -10.933503 -5.183576 0.000000 -0.000000 0.000000 7.949695 -6.022816 9.424237 2.806199 25.632553 0.044630 -10.419476 -6.445726 1.523883 0.014617 -1.537770 -1.412546
-259.756982 108.735165 -43.859563 92.229100 -9.753836 -3.164982 -4.860732 9.626632 4.640599 -2.249029 4.229836 2.156134 -2.249026 4.229837 2.156137 -1.700972 3.164546 1.631986 5.648021 12.311576 -3.129509 12.071814 -12.745835 -8.334194 7.330724 -0.244605 8.525934 -4.844146 -32.159345 66.256000 111.742295 -0.364899 9.503608 38.572782 -7.119827 -32.475919 39.886250 -9.341022 -91.318649 -3.041227 -5.435229 -16.845768 -65.851224 -34.656109 -36.501812 -62.288289 -11.021713 -27.568473 -6.297943 6.040689 16.899965 -0.546911 10.636705 -0.590996 4.230907 9.931106 0.270430 9.944537 -10.952716 -5.187543 -0.000000 0.000000 -0.000000 7.894567 -6.017887 9.424451 2.896670 25.626788 0.045016 -10.449411 -6.465694 1.512645 0.008534 -1.214946 -1.115994
-259.744266 108.731314 -43.832565 92.227469 -9.736176 -3.139117 -4.848124 9.611313 4.636148 -2.243224 4.223200 2.153762 -2.243222 4.223201 2.153764 -1.696584 3.159597 1.630144 6.155522 12.320078 -3.142579 13.039509 -12.661670 -8.562151 7.314593 -0.263643 8.508608 -4.894641 -32.130856 66.278967 111.776263 -0.376853 9.480711 38.587556 -7.128232 -32.487979 39.902739 -9.351052 -91.312951 -3.013036 -5.416628 -16.865371 -65.915586 -34.629954 -36.525275 -62.299154 -10.970250 -27.578396 -6.306939 6.051912 16.915275 -0.626804 10.623038 -0.613561 4.388155 9.937518 0.276944 9.870055 -10.972290 -5.191518 0.000000 0.000000 0.000000 7.841655 -6.013564 9.424961 2.983911 25.621314 0.045605 -10.479321 -6.485242 1.501587 0.004284 -0.911632 -0.837398
-259.731819 108.727429 -43.805850 92.226998 -9.718975 -3.114507 -4.835682 9.596401 4.632221 -2.237508 4.216738 2.151630 -2.237506 4.216738 2.151632 -1.692264 3.154777 1.628484 6.641832 12.328845 -3.153178 13.965335 -12.576897 -8.775269 7.298227 -0.281932 8.491684 -4.942410 -32.104081 66.300151 111.809520 -0.389168 9.458609 38.601455 -7.136560 -32.498768 39.918190 -9.360431 -91.307233 -2.985651 -5.398356 -16.884518 -65.977113 -34.604468 -36.548932 -62.311435 -10.920427 -27.588641 -6.315325 6.063259 16.931527 -0.703682 10.609577 -0.634387 4.540386 9.944615 0.283217 9.796529 -10.992318 -5.195506 -0.000000 0.000000 -0.000000 7.791565 -6.010001 9.425844 3.067046 25.616196 0.046459 -10.509200 -6.504255 1.490759 0.001627 -0.633157 -0.581625
-259.719701 108.723504 -43.779477 92.227933 -9.702331 -3.091419 -4.823445 9.581978 4.628933 -2.231899 4.210484 2.149790 -2.231898 4.210484 2.149791 -1.688028 3.150113 1.627044 7.102403 12.337859 -3.160823 14.840525 -12.492784 -8.971114 7.281572 -0.299310 8.475250 -4.986880 -32.079393 66.319188 111.841914 -0.401920 9.437474 38.614295 -7.144795 -32.508010 39.932380 -9.369012 -91.301483 -2.959242 -5.380489 -16.903117 -66.035198 -34.579793 -36.572817 -62.325440 -10.872597 -27.599275 -6.322973 6.074754 16.948921 -0.776904 10.596393 -0.653116 4.686526 9.952533 0.289202 9.724160 -11.012895 -5.199511 0.000000 -0.000000 0.000000 7.744903 -6.007351 9.427179 3.145194 25.611500 0.047640 -10.539043 -6.522619 1.480210 0.000262 -0.384846 -0.353548
-259.707967 108.719530 -43.753507 92.230521 -9.686345 -3.070121 -4.811448 9.568131 4.626397 -2.226418 4.204476 2.148294 -2.226417 4.204476 2.148295 -1.683890 3.145631 1.625864 7.532682 12.347093 -3.165036 15.656339 -12.410690 -9.147335 7.264575 -0.315618 8.459394 -5.027480 -32.057167 66.335716 111.873294 -0.415186 9.417479 38.625892 -7.152923 -32.515428 39.945087 -9.376651 -91.295690 -2.933980 -5.363104 -16.921077 -66.089236 -34.556068 -36.596965 -62.341480 -10.827113 -27.610366 -6.329758 6.086420 16.967655 -0.845829 10.583554 -0.669390 4.825500 9.961407 0.294850 9.653154 -11.034113 -5.203537 0.000000 0.000000 0.000000 7.702274 -6.005767 9.429042 3.217479 25.607290 0.049212 -10.568846 -6.540217 1.469990 -0.000159 -0.172021 -0.158044
-259.696678 108.715501 -43.728000 92.235006 -9.671115 -3.050879 -4.799731 9.554943 4.624728 -2.221083 4.198749 2.147195 -2.221083 4.198749 2.147195 -1.679865 3.141358 1.624983 7.928117 12.356516 -3.165341 16.404056 -12.332036 -9.301654 7.247182 -0.330698 8.444205 -5.063641 -32.037779 66.349372 111.903509 -0.429040 9.398796 38.636060 -7.160927 -32.520745 39.956091 -9.383202 -91.289841 -2.910037 -5.346279 -16.938307 -66.138622 -34.533432 -36.621411 -62.359867 -10.784326 -27.621982 -6.335551 6.098283 16.987930 -0.909814 10.571132 -0.682854 4.956234 9.971374 0.300116 9.583714 -11.056068 -5.207587 -0.000000 0.000000 -0.000000 7.664286 -6.005400 9.431512 3.283021 25.603630 0.051238 -10.598604 -6.556935 1.460148 0.000000 -0.000000 0.000000
-259.684990 108.711046 -43.700779 92.241991 -9.655291 -3.032381 -4.787395 9.541295 4.623945 -2.215488 4.192814 2.146472 -2.215489 4.192815 2.146471 -1.675648 3.136929 1.624383 8.320039 12.367310 -3.160583 17.142418 -12.250355 -9.444350 7.227912 -0.345442 8.428613 -5.097878 -32.020449 66.360677 111.935321 -0.445768 9.380212 38.645881 -7.169785 -32.524554 39.966269 -9.388680 -91.283804 -2.885613 -5.328481 -16.956298 -66.186878 -34.510289 -36.648420 -62.383048 -10.740777 -27.635315 -6.339727 6.112060 17.012265 -0.973094 10.557922 -0.693973 5.089089 9.983528 0.305282 9.509219 -11.080827 -5.211853 0.000000 0.000000 -0.000000 7.628156 -6.006558 9.434977 3.347054 25.600321 0.054077 -10.631174 -6.574121 1.449936 0.000437 0.136400 0.125341
-259.673816 108.706492 -43.673843 92.250854 -9.639934 -3.015988 -4.775408 9.528138 4.624106 -2.210072 4.187084 2.146179 -2.210073 4.187085 2.146179 -1.671567 3.132652 1.624107 8.681662 12.378893 -3.150769 17.820843 -12.171319 -9.565184 7.208276 -0.358618 8.413870 -5.127781 -32.006739 66.368689 111.966608 -0.464809 9.363230 38.654952 -7.179052 -32.526941 39.975031 -9.392430 -91.278301 -2.862558 -5.310910 -16.973797 -66.230474 -34.488481 -36.676037 -62.409590 -10.699540 -27.649432 -6.341295 6.127184 17.039184 -1.030659 10.544763 -0.701785 5.214533 9.996987 0.309894 9.434603 -11.106563 -5.215897 0.000000 -0.000000 -0.000000 7.596336 -6.009236 9.439223 3.405362 25.597625 0.057586 -10.664327 -6.590533 1.440143 0.000861 0.225444 0.207186
